<?xml version="1.0" encoding="UTF-8" standalone="no"?>
<!-- Created with Inkscape (http://www.inkscape.org/) -->

<svg
   xmlns:svg="http://www.w3.org/2000/svg"
   xmlns="http://www.w3.org/2000/svg"
   version="1.1"
   width="99"
   height="77"
   id="svg3637">
  <defs
     id="defs3639" />
  <g
     transform="translate(-485.29538,-538.87067)"
     id="layer1">
    <path
       d="m 511.85176,539.23022 c -4.37245,0.18747 -8.52158,3.02566 -10.09375,7.1875 l 0,0.0312 c -0.005,0.0135 -0.0262,0.0177 -0.0312,0.0312 l -15.46875,35.5 -0.0312,0.0312 -0.0312,0.0625 c -0.63606,1.79692 -0.91393,3.92211 -0.53125,6.03125 l 0,0.0625 0.0312,0.0625 2.15625,7.84375 2.78125,10.25 0.0312,0.0312 0,0.0312 0.75,2.15625 0,0.0312 0,0.0312 c 1.54218,3.93721 5.49473,6.64449 9.59375,6.90625 l 0.0625,0 0.0312,0 67.59375,0 0.0625,0 0.0625,0 c 4.24538,-0.32133 8.146,-3.3977 9.5625,-7.4375 l 0,-0.0312 0.0312,-0.0625 5.3125,-19.6875 0.0312,-0.0625 0,-0.0625 c 0.30397,-1.79358 0.37053,-3.87306 -0.25,-5.75 l -0.0312,-0.0625 -0.0312,-0.0622 -7.15625,-16.09375 -9.03125,-20.15625 c -0.006,-0.0134 -0.0255,-0.0178 -0.0312,-0.0312 -1.53563,-3.58749 -4.96923,-5.97476 -8.71875,-6.5625 l 0,-0.21875 -1.375,0 -0.0625,0 -45.15625,0 -0.0312,0 -0.0312,0 -1.5e-4,-5e-5 z"
       id="path60"
       style="font-size:medium;font-style:normal;font-variant:normal;font-weight:normal;font-stretch:normal;text-indent:0;text-align:start;text-decoration:none;line-height:normal;letter-spacing:normal;word-spacing:normal;text-transform:none;direction:ltr;block-progression:tb;writing-mode:lr-tb;text-anchor:start;color:#000000;fill:#ffffff;fill-opacity:1;stroke:none;stroke-width:2.86249995;marker:none;visibility:visible;display:inline;overflow:visible;enable-background:accumulate;font-family:Andale Mono;-inkscape-font-specification:Andale Mono" />
    <path
       d="m 556.22346,542.05794 c 3.56625,0.1075 7.08375,2.37125 8.50125,5.7175 l 8.70125,19.42625 6.89625,15.46625 c 0.48625,1.46875 0.4575,3.28625 0.19375,4.8525 l -5.12,18.91875 c -1.16125,3.31125 -4.55875,5.9775 -8.00375,6.23875 l -64.99375,-0.008 c -3.36875,-0.2125 -6.7675,-2.545 -8.02625,-5.75875 l -0.7125,-2.075 -2.68625,-9.83625 -2.07875,-7.56375 c -0.31625,-1.73625 -0.065,-3.55375 0.4775,-5.08375 l 14.92,-34.20875 c 1.28,-3.4575 4.84125,-5.93 8.48375,-6.08625 l 43.4475,0"
       id="path64"
       style="fill:#005daa;fill-opacity:1;fill-rule:nonzero;stroke:none" />
    <path
       d="m 556.50971,545.48919 c 2.3425,0.18125 4.63125,2.135 5.305,4.36875 l 13.7,30.4025 c 0.83625,1.7225 2.27625,3.80125 1.7125,6.12125 l -0.76625,3.13875 -4.13375,15.2775 c -0.53375,2.25375 -2.85125,4.07125 -5.04625,4.4425 l -64.105,0.0137 c -2.04,-0.0387 -3.87625,-0.81625 -5.11125,-2.55875 -1.23875,-2.03 -5.91625,-20.22125 -5.91625,-20.22125 -0.22375,-1.77625 0.48875,-3.33125 1.16375,-4.81125 l 11.56625,-26.4225 2.8375,-6.42875 c 1.16875,-2.1 3.385,-3.19375 5.6225,-3.32875 l 43.17125,0.006"
       id="path72"
       style="fill:#ffffff;fill-opacity:1;fill-rule:nonzero;stroke:none" />
    <path
       d="m 534.60221,572.89294 8.02875,-20.70125 12.1975,-0.006 10.8225,35.2825 -14.93125,-0.002 -1.6625,-19.37125 -9.6825,19.37125 -9.44625,0.0113 -9.7925,-19.22 -1.6025,19.20875 -14.90875,0.007 10.4925,-35.2675 12.2225,-0.006 8.2625,20.69375"
       id="path80"
       style="fill:#ed174f;fill-opacity:1;fill-rule:nonzero;stroke:none" />
    <path
       d="m 505.97971,596.93419 1.0575,-5.0825 3.0925,0.002 1.23875,9.8575 -2.395,0.004 -0.7425,-6.375 c -0.3925,2.09375 -0.69375,4.2675 -1.03375,6.375 l -2.4875,0.007 -1.0575,-6.35125 c -0.29875,2.09375 -0.49625,4.245 -0.74625,6.35125 l -2.4325,0.003 1.35125,-9.87875 3.09375,0.003 1.06125,5.085"
       id="path88"
       style="fill:#005daa;fill-opacity:1;fill-rule:nonzero;stroke:none" />
    <path
       d="m 514.0812,591.86669 -2.0625,9.84375 2.4375,0 0.34375,-1.71875 2.3125,0 0.28125,1.71875 2.53125,0 -2.15625,-9.84375 -3.6875,0 z m 1.875,2.03125 c 0.3275,1.34 0.505,2.8125 0.75,4.21875 l -1.53125,0 0.78125,-4.21875 z"
       id="path96"
       style="fill:#005daa;fill-opacity:1;fill-rule:nonzero;stroke:none" />
    <path
       d="m 523.23745,591.77294 c -1.11594,0.002 -2.0625,0.0937 -2.0625,0.0937 l 0,9.84375 2.34375,0 0,-3.5 c 0.17125,-0.0942 0.485,-0.0925 0.65625,0 0.007,0.0213 1.1875,3.5 1.1875,3.5 l 2.4375,0 -1.375,-3.625 -0.0312,-0.25 c 0.815,-0.25625 1.0975,-1.14875 1.25,-1.875 0.0837,-1.33125 0.145,-3.1 -1.28125,-3.8125 -0.73,-0.3025 -2.00907,-0.37688 -3.125,-0.375 z m 0.875,2.09375 c 0.29109,0.009 0.63437,0.0569 0.8125,0.1875 0.4125,0.45625 0.425,1.22875 0.21875,1.78125 -0.1425,0.1975 -0.20375,0.415 -0.5625,0.46875 l -1,0 0,-2.40625 c 0,0 0.24015,-0.0402 0.53125,-0.0312 z"
       id="path104"
       style="fill:#005daa;fill-opacity:1;fill-rule:nonzero;stroke:none" />
    <path
       d="m 555.2687,591.64794 c -0.70618,0.0471 -1.37782,0.22844 -1.9375,0.53125 -1.10375,0.68 -1.37245,1.91 -1.46875,3.09375 0.0537,2 -0.3625,4.3925 1.09375,5.84375 1.285,0.9375 2.85125,0.8925 4.375,0.5 1.45875,-0.43375 1.94875,-1.9575 2.03125,-3.3125 0.0637,-1.89625 0.2775,-4.09125 -0.8125,-5.625 -0.8461,-0.80703 -2.10429,-1.10978 -3.28125,-1.03125 z m 0.3125,2.0625 c 0.35218,-0.0155 0.73,0.0656 0.96875,0.28125 0.67375,1.17875 0.36375,3.2475 0.3125,4.8125 -0.0775,0.38375 -0.16375,0.79875 -0.53125,1 -0.445,0.2 -1.13375,0.2 -1.53125,-0.125 -0.37,-0.49125 -0.305,-0.6075 -0.40625,-1.21875 -0.205,-1.2675 -0.3825,-3.2075 0.28125,-4.375 0.22125,-0.23125 0.55406,-0.35953 0.90625,-0.375 z"
       id="path112"
       style="fill:#005daa;fill-opacity:1;fill-rule:nonzero;stroke:none" />
    <path
       d="m 542.52471,593.95044 -2.1275,0 -0.0112,7.76125 -2.35875,-0.002 -0.002,-7.77375 -2.12125,0 0.003,-2.1075 6.61875,0 0,2.1225"
       id="path120"
       style="fill:#005daa;fill-opacity:1;fill-rule:nonzero;stroke:none" />
    <path
       d="m 545.82721,595.77044 2.12,0.0163 0.0125,-3.95 2.41,-0.009 0,9.88375 -2.41,0.0138 0,-3.8475 -2.1275,10e-4 -0.0163,3.83 -2.42625,0.002 0.007,-9.88375 2.41625,-0.003 0.0138,3.945"
       id="path128"
       style="fill:#005daa;fill-opacity:1;fill-rule:nonzero;stroke:none" />
    <path
       d="m 565.84596,598.16169 0.003,-6.33375 2.205,0 0,9.9025 -3.24,0 -1.72125,-5.94375 0,5.94375 -2.12625,0 0,-9.9025 3.24,0 1.64,6.33375"
       id="path136"
       style="fill:#005daa;fill-opacity:1;fill-rule:nonzero;stroke:none" />
    <path
       d="m 530.4562,591.86669 -2.03125,9.84375 2.40625,0 0.34375,-1.71875 2.3125,0 0.28125,1.71875 2.53125,0 -2.15625,-9.84375 -3.6875,0 z m 1.875,2.03125 c 0.325,1.34 0.50375,2.8125 0.75,4.21875 l -1.53125,0 0.78125,-4.21875 z"
       id="path168"
       style="fill:#005daa;fill-opacity:1;fill-rule:nonzero;stroke:none" />
    <path
       d="m 578.88666,607.6092 c -1.38935,0 -2.5625,1.07804 -2.5625,2.53125 0,1.46425 1.17309,2.53125 2.5625,2.53125 1.3796,0 2.5625,-1.067 2.5625,-2.53125 0,-1.45321 -1.18296,-2.53125 -2.5625,-2.53125 z m 0,0.4999 c 1.09618,0 1.96875,0.88139 1.96875,2.03125 0,0.62325 -0.26198,1.10627 -0.65625,1.46875 -0.34605,0.31815 -0.8,0.53125 -1.3125,0.53125 -1.10664,0 -1.96875,-0.82972 -1.96875,-2 0,-1.14986 0.86234,-2.03125 1.96875,-2.03125 z m 1.3125,3.5 -0.0312,-0.0625 -0.78125,-1.21875 c 0.17614,-0.0347 0.34851,-0.10445 0.46875,-0.21875 0.14311,-0.13604 0.25,-0.32645 0.25,-0.59375 0,-0.29174 -0.10016,-0.51256 -0.28125,-0.65625 -0.18114,-0.14359 -0.43698,-0.21865 -0.7813,-0.21865 l -1.09375,0 -0.0625,0 0,0.0625 0,2.875 0,0.0312 0.0625,0 0.4375,0 0.0312,0 0,-0.0312 0,-1.1875 0.4375,0 0.71875,1.1875 0.0312,0.0312 0.0312,0 0.46875,0 0.0937,0 2e-4,-5e-5 z m -1.7813,-2.50005 0.5625,0 c 0.14703,0 0.26972,0.0395 0.375,0.0937 0.10528,0.0542 0.1875,0.11815 0.1875,0.28125 0,0.20623 -0.0742,0.28951 -0.1875,0.34375 -0.11333,0.0542 -0.28682,0.0937 -0.46875,0.0937 l -0.46875,0 0,-0.8125 0,10e-5 z"
       id="path184"
       style="font-size:medium;font-style:normal;font-variant:normal;font-weight:normal;font-stretch:normal;text-indent:0;text-align:start;text-decoration:none;line-height:normal;letter-spacing:normal;word-spacing:normal;text-transform:none;direction:ltr;block-progression:tb;writing-mode:lr-tb;text-anchor:start;color:#000000;fill:#005daa;fill-opacity:1;stroke:none;stroke-width:0.1;marker:none;visibility:visible;display:inline;overflow:visible;enable-background:accumulate;font-family:Andale Mono;-inkscape-font-specification:Andale Mono" />
  </g>
</svg>
