<svg xmlns="http://www.w3.org/2000/svg" width="375" viewBox="0 0 375 375" height="375" version="1.0"><defs><clipPath id="a"><path d="M 2 0 L 373.921875 0 L 373.921875 210.003906 L 2 210.003906 Z M 2 0"/></clipPath></defs><path fill="#FFF" d="M-37.5 -37.5H412.5V412.5H-37.5z"/><path fill="#FFF" d="M-37.5 -37.5H412.5V412.5H-37.5z"/><path fill="#F8F8F8" d="M-37.5 -37.5H412.5V412.5H-37.5z"/><g clip-path="url(#a)"><path fill="#F96332" d="M 252.605469 0 L 292.910156 40.253906 L 207.46875 125.875 L 126.859375 45.367188 L 2.324219 169.75 L 42.628906 210.003906 L 126.859375 125.875 L 207.46875 206.382812 L 333.214844 80.507812 L 373.515625 120.761719 L 373.515625 0 Z M 252.605469 0"/></g><path fill="#F8F8F8" d="M 205.628906 27.300781 C 189.0625 27.300781 175.628906 40.734375 175.628906 57.300781 C 175.628906 73.871094 189.0625 87.304688 205.628906 87.304688 C 222.199219 87.304688 235.628906 73.871094 235.628906 57.300781 C 235.628906 40.734375 222.199219 27.300781 205.628906 27.300781"/><g fill="#F8F8F8"><g><g><path d="M 32.40625 -59.75 C 30.195312 -59.75 28.382812 -59.160156 26.96875 -57.984375 C 25.5625 -56.816406 24.859375 -55.128906 24.859375 -52.921875 C 24.859375 -50.710938 25.515625 -48.929688 26.828125 -47.578125 C 28.140625 -46.234375 29.847656 -45.195312 31.953125 -44.46875 C 34.054688 -43.75 36.398438 -43.0625 38.984375 -42.40625 C 41.578125 -41.75 44.148438 -40.953125 46.703125 -40.015625 C 49.253906 -39.085938 51.582031 -37.929688 53.6875 -36.546875 C 55.800781 -35.171875 57.515625 -33.222656 58.828125 -30.703125 C 60.140625 -28.179688 60.796875 -25.160156 60.796875 -21.640625 C 60.796875 -15.492188 58.289062 -10.226562 53.28125 -5.84375 C 48.28125 -1.46875 41.6875 0.71875 33.5 0.71875 C 25.320312 0.71875 18.726562 -1.242188 13.71875 -5.171875 C 8.71875 -9.109375 6.21875 -14.703125 6.21875 -21.953125 L 25.0625 -21.953125 C 25.539062 -16.148438 28.507812 -13.25 33.96875 -13.25 C 36.519531 -13.25 38.519531 -13.921875 39.96875 -15.265625 C 41.425781 -16.617188 42.15625 -18.332031 42.15625 -20.40625 C 42.15625 -22.476562 41.5 -24.164062 40.1875 -25.46875 C 38.875 -26.78125 37.160156 -27.816406 35.046875 -28.578125 C 32.941406 -29.335938 30.59375 -30.046875 28 -30.703125 C 25.414062 -31.359375 22.847656 -32.171875 20.296875 -33.140625 C 17.742188 -34.109375 15.414062 -35.265625 13.3125 -36.609375 C 11.207031 -37.953125 9.5 -39.882812 8.1875 -42.40625 C 6.875 -44.925781 6.21875 -47.910156 6.21875 -51.359375 C 6.21875 -58.128906 8.734375 -63.550781 13.765625 -67.625 C 18.804688 -71.695312 25.242188 -73.734375 33.078125 -73.734375 C 40.921875 -73.734375 47.257812 -71.953125 52.09375 -68.390625 C 56.925781 -64.835938 59.445312 -59.234375 59.65625 -51.578125 L 40.390625 -51.578125 C 40.109375 -54.203125 39.257812 -56.21875 37.84375 -57.625 C 36.4375 -59.039062 34.625 -59.75 32.40625 -59.75 Z M 32.40625 -59.75" transform="translate(9.426 277.913)"/></g></g></g><g fill="#F8F8F8"><g><g><path d="M 2.796875 -59.234375 L 2.796875 -72.703125 L 60.171875 -72.703125 L 60.171875 -59.234375 L 40.28125 -59.234375 L 40.28125 0 L 22.578125 0 L 22.578125 -59.234375 Z M 2.796875 -59.234375" transform="translate(74.15 277.913)"/></g></g></g><g fill="#F8F8F8"><g><g><path d="M 54.734375 -21.328125 C 58.222656 -25.128906 59.96875 -30.203125 59.96875 -36.546875 C 59.96875 -42.898438 58.222656 -47.976562 54.734375 -51.78125 C 51.242188 -55.582031 46.582031 -57.484375 40.75 -57.484375 C 34.914062 -57.484375 30.253906 -55.582031 26.765625 -51.78125 C 23.285156 -47.976562 21.546875 -42.898438 21.546875 -36.546875 C 21.546875 -30.203125 23.285156 -25.128906 26.765625 -21.328125 C 30.253906 -17.535156 34.914062 -15.640625 40.75 -15.640625 C 46.582031 -15.640625 51.242188 -17.535156 54.734375 -21.328125 Z M 14.34375 -9.84375 C 7.125 -16.882812 3.515625 -25.789062 3.515625 -36.5625 C 3.515625 -47.332031 7.125 -56.21875 14.34375 -63.21875 C 21.5625 -70.226562 30.398438 -73.734375 40.859375 -73.734375 C 51.316406 -73.734375 60.117188 -70.226562 67.265625 -63.21875 C 74.410156 -56.21875 77.984375 -47.332031 77.984375 -36.5625 C 77.984375 -25.789062 74.390625 -16.882812 67.203125 -9.84375 C 60.023438 -2.800781 51.222656 0.71875 40.796875 0.71875 C 30.378906 0.71875 21.5625 -2.800781 14.34375 -9.84375 Z M 14.34375 -9.84375" transform="translate(134.835 277.913)"/></g></g></g><g fill="#F8F8F8"><g><g><path d="M 14.34375 -9.890625 C 7.125 -16.898438 3.515625 -25.789062 3.515625 -36.5625 C 3.515625 -47.332031 7.125 -56.21875 14.34375 -63.21875 C 21.5625 -70.226562 30.378906 -73.734375 40.796875 -73.734375 C 48.878906 -73.734375 56.0625 -71.59375 62.34375 -67.3125 C 68.625 -63.03125 73.007812 -57.09375 75.5 -49.5 L 54.375 -49.5 C 51.613281 -54.820312 47.191406 -57.484375 41.109375 -57.484375 C 35.035156 -57.484375 30.253906 -55.582031 26.765625 -51.78125 C 23.285156 -47.976562 21.546875 -42.898438 21.546875 -36.546875 C 21.546875 -30.203125 23.285156 -25.128906 26.765625 -21.328125 C 30.253906 -17.535156 35.035156 -15.640625 41.109375 -15.640625 C 47.191406 -15.640625 51.613281 -18.296875 54.375 -23.609375 L 75.5 -23.609375 C 73.007812 -16.015625 68.625 -10.078125 62.34375 -5.796875 C 56.0625 -1.515625 48.878906 0.625 40.796875 0.625 C 30.378906 0.625 21.5625 -2.878906 14.34375 -9.890625 Z M 14.34375 -9.890625" transform="translate(214.161 277.913)"/></g></g></g><g fill="#F8F8F8"><g><g><path d="M 25.46875 0 L 7.765625 0 L 7.765625 -72.703125 L 25.46875 -72.703125 L 25.46875 -40.796875 L 49.5 -72.703125 L 72.703125 -72.703125 L 42.765625 -36.34375 L 72.703125 0 L 49.921875 0 L 25.46875 -32.109375 Z M 25.46875 0" transform="translate(291.002 277.913)"/></g></g></g><g fill="#F8F8F8"><g><g><path d="M 7.765625 -72.703125 L 39.359375 -72.703125 C 46.742188 -72.703125 52.628906 -70.90625 57.015625 -67.3125 C 61.398438 -63.726562 63.59375 -59.171875 63.59375 -53.640625 C 63.59375 -45.429688 58.789062 -39.875 49.1875 -36.96875 C 54.09375 -36.28125 57.992188 -34.242188 60.890625 -30.859375 C 63.796875 -27.472656 65.25 -23.503906 65.25 -18.953125 C 65.25 -13.148438 63.125 -8.539062 58.875 -5.125 C 54.625 -1.707031 48.703125 0 41.109375 0 L 7.765625 0 Z M 25.46875 -59.234375 L 25.46875 -43.5 L 37.078125 -43.5 C 39.628906 -43.5 41.679688 -44.15625 43.234375 -45.46875 C 44.785156 -46.78125 45.5625 -48.726562 45.5625 -51.3125 C 45.5625 -53.90625 44.785156 -55.875 43.234375 -57.21875 C 41.679688 -58.5625 39.628906 -59.234375 37.078125 -59.234375 Z M 25.46875 -13.46875 L 38.84375 -13.46875 C 41.25 -13.46875 43.242188 -14.191406 44.828125 -15.640625 C 46.421875 -17.085938 47.21875 -19.085938 47.21875 -21.640625 C 47.21875 -24.191406 46.457031 -26.226562 44.9375 -27.75 C 43.425781 -29.269531 41.460938 -30.03125 39.046875 -30.03125 L 25.46875 -30.03125 Z M 25.46875 -13.46875" transform="translate(6.578 373.913)"/></g></g></g><g fill="#F8F8F8"><g><g><path d="M 54.734375 -21.328125 C 58.222656 -25.128906 59.96875 -30.203125 59.96875 -36.546875 C 59.96875 -42.898438 58.222656 -47.976562 54.734375 -51.78125 C 51.242188 -55.582031 46.582031 -57.484375 40.75 -57.484375 C 34.914062 -57.484375 30.253906 -55.582031 26.765625 -51.78125 C 23.285156 -47.976562 21.546875 -42.898438 21.546875 -36.546875 C 21.546875 -30.203125 23.285156 -25.128906 26.765625 -21.328125 C 30.253906 -17.535156 34.914062 -15.640625 40.75 -15.640625 C 46.582031 -15.640625 51.242188 -17.535156 54.734375 -21.328125 Z M 14.34375 -9.84375 C 7.125 -16.882812 3.515625 -25.789062 3.515625 -36.5625 C 3.515625 -47.332031 7.125 -56.21875 14.34375 -63.21875 C 21.5625 -70.226562 30.398438 -73.734375 40.859375 -73.734375 C 51.316406 -73.734375 60.117188 -70.226562 67.265625 -63.21875 C 74.410156 -56.21875 77.984375 -47.332031 77.984375 -36.5625 C 77.984375 -25.789062 74.390625 -16.882812 67.203125 -9.84375 C 60.023438 -2.800781 51.222656 0.71875 40.796875 0.71875 C 30.378906 0.71875 21.5625 -2.800781 14.34375 -9.84375 Z M 14.34375 -9.84375" transform="translate(74.099 373.913)"/></g></g></g><g fill="#F8F8F8"><g><g><path d="M 53.953125 0 L 49.921875 -12.21875 L 23.8125 -12.21875 L 19.78125 0 L 0.9375 0 L 26.203125 -72.90625 L 47.75 -72.90625 L 72.90625 0 Z M 28.265625 -25.6875 L 45.46875 -25.6875 L 36.875 -51.578125 Z M 28.265625 -25.6875" transform="translate(153.424 373.913)"/></g></g></g><g fill="#F8F8F8"><g><g><path d="M 25.46875 -28.265625 L 25.46875 0 L 7.765625 0 L 7.765625 -72.703125 L 36.453125 -72.703125 C 44.878906 -72.703125 51.4375 -70.523438 56.125 -66.171875 C 60.820312 -61.828125 63.171875 -56.582031 63.171875 -50.4375 C 63.171875 -46.226562 61.894531 -42.117188 59.34375 -38.109375 C 56.789062 -34.109375 52.613281 -31.28125 46.8125 -29.625 L 64.625 0 L 43.90625 0 L 27.546875 -28.265625 Z M 25.46875 -59.234375 L 25.46875 -41.734375 L 36.453125 -41.734375 C 39.148438 -41.734375 41.273438 -42.523438 42.828125 -44.109375 C 44.378906 -45.703125 45.15625 -47.789062 45.15625 -50.375 C 45.15625 -52.96875 44.359375 -55.09375 42.765625 -56.75 C 41.179688 -58.40625 39.078125 -59.234375 36.453125 -59.234375 Z M 25.46875 -59.234375" transform="translate(224.983 373.913)"/></g></g></g><g fill="#F8F8F8"><g><g><path d="M 25.46875 -13.46875 L 33.34375 -13.46875 C 40.113281 -13.46875 45.429688 -15.535156 49.296875 -19.671875 C 53.160156 -23.816406 55.09375 -29.375 55.09375 -36.34375 C 55.09375 -43.320312 53.160156 -48.878906 49.296875 -53.015625 C 45.429688 -57.160156 40.113281 -59.234375 33.34375 -59.234375 L 25.46875 -59.234375 Z M 33.34375 -72.703125 C 44.945312 -72.703125 54.472656 -69.332031 61.921875 -62.59375 C 69.378906 -55.863281 73.109375 -47.128906 73.109375 -36.390625 C 73.109375 -25.660156 69.378906 -16.910156 61.921875 -10.140625 C 54.472656 -3.378906 44.945312 0 33.34375 0 L 7.765625 0 L 7.765625 -72.703125 Z M 33.34375 -72.703125" transform="translate(291.882 373.913)"/></g></g></g></svg>